<svg width="24" height="24" viewBox="0 0 24 24" fill="none" xmlns="http://www.w3.org/2000/svg">
<path d="M8.98272 0.837456C9.16558 0.312885 9.70043 -0.00368648 10.249 0.0865987L11.4376 0.285457C14.009 0.71517 15.7004 3.20317 15.1541 5.75174L14.4433 9.07174H19.0844C21.0467 9.07174 22.7461 10.434 23.1724 12.3495C23.4353 13.5335 23.1656 14.7815 22.4433 15.7563L22.4661 15.8569C22.8079 17.3243 22.3667 18.8637 21.3004 19.9289V19.978L21.2901 20.2363C21.2696 20.4946 21.217 20.7495 21.1347 20.9952L21.0136 21.3175C20.345 22.89 18.7964 23.9289 17.0661 23.9289H12.945L12.4981 23.9209C10.4136 23.8523 8.37129 23.3106 6.52786 22.3346L6.13586 22.1186L5.82843 21.9426C5.52558 21.7689 5.18729 21.6672 4.84215 21.6455L4.69357 21.6409H2.44329C1.497 21.6409 0.729004 20.8729 0.729004 19.9266V13.0717C0.729004 12.1255 1.497 11.3575 2.44329 11.3575H4.489L4.66843 11.3426C5.02043 11.2866 5.32672 11.0706 5.49586 10.7563L5.56786 10.5917L8.98272 0.837456ZM7.72557 11.3472C7.24443 12.722 5.94615 13.6432 4.489 13.6432H3.01472V19.3552H4.69357C5.489 19.3552 6.27072 19.5632 6.96215 19.9586L7.27186 20.1346L7.59758 20.3152C9.24329 21.186 11.0799 21.6432 12.945 21.6432H17.0661C17.9279 21.6432 18.6936 21.09 18.9667 20.2729L19.0021 20.1277C19.0101 20.0775 19.0147 20.0283 19.0147 19.978V18.9815L19.6856 18.3117C20.129 17.8683 20.345 17.2523 20.2833 16.6375L20.2399 16.3735L20.217 16.2752L19.9781 15.2455L20.6056 14.3963C20.937 13.9495 21.0581 13.3769 20.9404 12.8455C20.7461 11.9757 19.9759 11.3575 19.0844 11.3575H14.4433C13.753 11.3575 13.0993 11.0443 12.665 10.5083C12.2319 9.97117 12.0639 9.26717 12.2079 8.59288L12.9199 5.27403C13.193 3.99974 12.3473 2.75517 11.0616 2.54031L10.8216 2.50031L7.72557 11.3472Z" fill="white"/>
</svg>
