<svg width="24" height="24" viewBox="0 0 24 24" fill="none" xmlns="http://www.w3.org/2000/svg">
<path d="M15.0173 23.1625C14.8344 23.6871 14.2996 24.0037 13.751 23.9134L12.5624 23.7145C9.991 23.2848 8.29957 20.7968 8.84585 18.2483L9.55671 14.9283H4.91557C2.95328 14.9283 1.25385 13.566 0.827568 11.6505C0.564711 10.4665 0.834426 9.21854 1.55671 8.24369L1.53385 8.14312C1.19214 6.67569 1.63328 5.13626 2.69957 4.07112V4.02197L2.70985 3.76369C2.73042 3.5054 2.783 3.25054 2.86528 3.00483L2.98643 2.68254C3.655 1.10997 5.20357 0.0711161 6.93385 0.0711161L11.055 0.0711161L11.5019 0.0791161C13.5864 0.147688 15.6287 0.689402 17.4721 1.6654L17.8641 1.8814L18.1716 2.0574C18.4744 2.23112 18.8127 2.33283 19.1579 2.35455L19.3064 2.35912H21.5567C22.503 2.35912 23.271 3.12712 23.271 4.0734L23.271 10.9283C23.271 11.8745 22.503 12.6425 21.5567 12.6425H19.511L19.3316 12.6574C18.9796 12.7134 18.6733 12.9294 18.5041 13.2437L18.4321 13.4083L15.0173 23.1625ZM16.2744 12.6528C16.7556 11.278 18.0539 10.3568 19.511 10.3568H20.9853L20.9853 4.64483H19.3064C18.511 4.64483 17.7293 4.43683 17.0379 4.0414L16.7281 3.8654L16.4024 3.68483C14.7567 2.81397 12.9201 2.35683 11.055 2.35683L6.93385 2.35683C6.07214 2.35683 5.30643 2.90997 5.03328 3.72712L4.99785 3.87226C4.98985 3.92254 4.98528 3.97169 4.98528 4.02197V5.01854L4.31443 5.68826C3.871 6.13169 3.655 6.74769 3.71671 7.36254L3.76014 7.62654L3.783 7.72483L4.02185 8.75454L3.39443 9.60369C3.063 10.0505 2.94185 10.6231 3.05957 11.1545C3.25386 12.0243 4.02414 12.6425 4.91557 12.6425H9.55671C10.247 12.6425 10.9007 12.9557 11.335 13.4917C11.7681 14.0288 11.9361 14.7328 11.7921 15.4071L11.0801 18.726C10.807 20.0003 11.6527 21.2448 12.9384 21.4597L13.1784 21.4997L16.2744 12.6528Z" fill="white"/>
</svg>
