<svg width="102" height="93" viewBox="0 0 102 93" fill="none" xmlns="http://www.w3.org/2000/svg">
<path d="M36 16.25L31 1.25" stroke="white" stroke-width="2.5" stroke-linecap="round"/>
<path d="M66 16.25L71 1.25" stroke="white" stroke-width="2.5" stroke-linecap="round"/>
<path d="M93 16.25H9C4.58172 16.25 1 19.8317 1 24.25V83.25C1 87.6683 4.58172 91.25 9 91.25H93C97.4183 91.25 101 87.6683 101 83.25V24.25C101 19.8317 97.4183 16.25 93 16.25Z" fill="#9D8EC3" stroke="black" stroke-width="2"/>
<path d="M82 21.25H10C7.79086 21.25 6 23.0409 6 25.25V82.25C6 84.4591 7.79086 86.25 10 86.25H82C84.2091 86.25 86 84.4591 86 82.25V25.25C86 23.0409 84.2091 21.25 82 21.25Z" fill="#A5D6A7" stroke="black" stroke-width="1.5"/>
<path d="M93 39.75C94.933 39.75 96.5 38.183 96.5 36.25C96.5 34.317 94.933 32.75 93 32.75C91.067 32.75 89.5 34.317 89.5 36.25C89.5 38.183 91.067 39.75 93 39.75Z" fill="#FFE082" stroke="black" stroke-width="1.5"/>
<path d="M93 53.25C94.1046 53.25 95 52.3546 95 51.25C95 50.1454 94.1046 49.25 93 49.25C91.8954 49.25 91 50.1454 91 51.25C91 52.3546 91.8954 53.25 93 53.25Z" fill="#FFE082" stroke="black"/>
<path d="M93 63.25C94.1046 63.25 95 62.3546 95 61.25C95 60.1454 94.1046 59.25 93 59.25C91.8954 59.25 91 60.1454 91 61.25C91 62.3546 91.8954 63.25 93 63.25Z" fill="#FFE082" stroke="black"/>
<path d="M93 73.25C94.1046 73.25 95 72.3546 95 71.25C95 70.1454 94.1046 69.25 93 69.25C91.8954 69.25 91 70.1454 91 71.25C91 72.3546 91.8954 73.25 93 73.25Z" fill="#FFE082" stroke="black"/>
<path d="M36 55.25C38.2091 55.25 40 53.4591 40 51.25C40 49.0409 38.2091 47.25 36 47.25C33.7909 47.25 32 49.0409 32 51.25C32 53.4591 33.7909 55.25 36 55.25Z" fill="black"/>
<path d="M66 55.25C68.2091 55.25 70 53.4591 70 51.25C70 49.0409 68.2091 47.25 66 47.25C63.7909 47.25 62 49.0409 62 51.25C62 53.4591 63.7909 55.25 66 55.25Z" fill="black"/>
<path d="M36 66.25C46 72.9167 56 72.9167 66 66.25" stroke="black" stroke-width="3" stroke-linecap="round"/>
</svg>
